<svg width="176" height="158" viewBox="0 0 176 158" fill="none" xmlns="http://www.w3.org/2000/svg">
<path d="M4.91243 0.56044C4.33061 0.924759 3.94272 1.45721 3.72108 2.15779C3.58255 2.74629 2.66825 11.2374 1.72625 21.0177C-0.296281 42.3156 -0.434811 46.1828 0.756543 49.7418C1.83707 53.0206 2.77908 54.3937 6.90726 58.4291C11.6727 63.1371 11.4233 62.1562 10.98 74.6547C10.4813 87.8819 9.26226 105.172 6.76873 134.737C5.85443 145.554 6.04837 149.057 7.73843 152.588C8.79126 154.774 9.95491 155.979 11.8943 156.96C14.8589 158.417 18.3221 158.165 21.065 156.287C23.8633 154.41 25.775 150.206 26.052 145.33C26.1629 143.537 25.8858 138.717 25.0823 129.189C23.5308 110.637 22.3672 95.3922 21.9793 88.6945C21.5914 82.081 21.4806 64.5102 21.813 62.9129C22.007 61.9881 22.6719 61.1754 26.0243 57.8686C29.7092 54.1975 30.0417 53.7772 31.2607 51.2831C32.646 48.3686 33.3664 45.9306 33.3664 44.081C33.3664 43.4365 32.5629 35.7861 31.5655 27.1268C30.5958 18.4395 29.5984 9.44392 29.349 7.146C28.7672 1.59732 28.601 0.924759 27.4096 0.364288C26.6062 -0.0280457 26.3568 -0.0280457 25.6087 0.280212C23.8356 1.03685 23.8356 0.952774 24.1957 11.1534C24.9438 32.9277 25.0823 38.5884 24.9161 39.6813C24.6945 41.3347 23.9187 42.0353 22.4226 42.0353C20.6771 42.0353 20.1507 41.4188 19.9567 39.1769C19.8736 38.2241 19.5412 29.789 19.2364 20.4572C18.9316 11.1253 18.5991 2.97049 18.516 2.29791C18.4329 1.62535 18.1282 0.840683 17.8234 0.532425C17.103 -0.196182 15.7454 -0.140137 14.9697 0.672546C14.1108 1.51326 14.1108 1.6814 13.4181 21.5781C13.1134 30.4336 12.8086 38.4483 12.7255 39.3451C12.5316 41.5309 11.8666 42.3156 10.2043 42.3156C9.23455 42.3156 8.90208 42.1754 8.26484 41.4188L7.51679 40.494L7.68302 36.7108C8.15402 25.8938 8.76355 2.55011 8.59732 1.87755C8.40338 1.0929 7.01808 -1.52588e-05 6.21461 -1.52588e-05C5.99296 -1.52588e-05 5.41114 0.252182 4.91243 0.56044Z" fill="white"/>
<path d="M166.881 0.560425C163.085 2.60616 158.486 9.94832 155.716 18.4955C151.615 31.0781 150.839 45.4262 153.499 58.8494C154.607 64.4822 156.02 69.5544 157.24 72.3568C159.484 77.5412 159.511 77.5972 159.317 84.2108C159.234 87.4335 159.04 91.8052 158.874 93.8789C158.542 98.3346 156.63 124.677 155.771 136.475C155.245 144.125 155.245 144.91 155.633 147.124C156.159 150.206 156.962 152.252 158.265 153.989C161.257 157.969 165.551 159.062 169.873 156.932C172.755 155.503 174.777 152.448 175.664 148.245C176.246 145.498 176.107 141.351 174.971 128.348C173.281 108.255 172.173 92.3656 171.619 80.1474C171.48 76.6724 171.342 57.8406 171.342 38.3082C171.342 -0.588531 171.425 1.34509 169.707 0.448334C168.654 -0.112137 168.1 -0.112137 166.881 0.560425Z" fill="white"/>
<path d="M85.8137 0.98082C85.0379 1.40117 84.0959 2.10176 83.708 2.60619C83.0154 3.53096 82.8769 3.83922 76.5599 18.4955C74.3989 23.5118 71.5451 30.1253 70.2153 33.2079C68.8854 36.2905 66.946 40.7743 65.9209 43.1563C64.8957 45.5383 63.8983 47.6681 63.7321 47.8642C63.4273 48.1725 58.745 48.733 43.3405 50.3023C40.8193 50.5825 38.5197 50.9468 38.1872 51.143C37.8825 51.3392 36.8296 52.9085 35.8876 54.6459C34.4192 57.2802 33.6158 58.317 30.7066 61.3716C28.8226 63.3613 27.1603 65.2949 26.994 65.7152C26.5785 66.8082 26.6616 71.0397 27.1049 72.1046C27.2988 72.6371 29.2659 74.7388 31.7318 77.0648C46.7484 91.3008 49.4358 93.963 49.4358 94.4674C49.4358 94.7477 48.9925 97.1016 48.4661 99.6798C47.912 102.286 46.9977 106.77 46.3882 109.712C45.8064 112.627 44.3934 119.184 43.2574 124.284C40.0435 138.605 39.9327 139.165 40.0989 141.015C40.2929 143.088 41.2072 144.574 42.9249 145.582C44.3102 146.423 45.8618 146.731 47.3025 146.451C47.8289 146.367 52.7328 143.593 58.1909 140.314C63.649 137.035 72.598 131.655 78.0283 128.404C83.9851 124.817 88.1964 122.463 88.6397 122.463C89.0553 122.463 95.1783 125.966 104.377 131.459C129.949 146.787 128.758 146.115 130.392 146.423C132.997 146.928 135.906 144.742 136.737 141.715C137.07 140.482 136.987 140.006 133.468 123.724C132.193 117.699 130.337 109.012 129.367 104.388C128.398 99.7639 127.511 95.6164 127.4 95.168C127.179 94.2432 126.791 94.6356 141.558 80.5397C145.825 76.4483 149.565 72.6931 149.87 72.1607L150.424 71.2079L148.651 62.1563C147.681 57.1681 146.739 52.8244 146.517 52.5162C146.019 51.7035 147.986 51.9837 122.856 49.1813C117.897 48.6209 113.658 48.1164 113.436 48.0604C113.187 47.9763 112.023 45.5943 110.749 42.5398C108.699 37.6356 106.316 32.0589 101.468 20.8775C100.526 18.7197 98.4199 13.8156 96.7852 9.97638C95.0121 5.8289 93.4882 2.66223 93.0172 2.18582C91.1609 0.224182 88.3072 -0.252228 85.8137 0.98082ZM89.4155 21.438C89.6371 21.6622 90.4129 23.2596 91.1332 24.997C91.8536 26.7345 93.6268 30.938 95.0675 34.3289C96.5082 37.7197 99.1125 43.8849 100.858 48.0324C102.603 52.1799 104.321 56.1032 104.709 56.7757C105.9 58.8495 106.427 59.0176 113.852 59.8303C117.509 60.2226 124.63 61.0073 129.644 61.5397C134.687 62.1002 139.175 62.7167 139.674 62.9129C140.644 63.3332 141.115 64.4262 140.699 65.2388C140.45 65.7152 136.793 69.3583 123.577 82.2491C116.512 89.1429 115.681 90.1798 115.653 92.1415C115.653 92.6459 116.152 95.3361 116.733 98.1665C117.315 100.969 118.895 108.619 120.252 115.149C122.773 127.423 122.801 127.815 121.582 128.012C121.277 128.04 117.232 125.77 112.328 122.799C89.4986 108.984 90.8285 109.74 89.36 109.46C87.4483 109.096 88.1687 108.731 69.9382 119.661C65.7546 122.183 60.9061 125.097 59.1606 126.162C57.4428 127.199 55.8082 128.068 55.5311 128.068C55.2818 128.068 54.8385 127.815 54.5891 127.535C54.1458 127.031 54.2567 126.358 56.9164 113.748C60.9615 94.8037 61.0723 94.1872 61.0723 92.3937C61.0723 91.4409 60.8784 90.3199 60.629 89.7875C60.3797 89.255 57.055 85.8081 53.2038 82.053C35.0565 64.3701 35.4444 64.8185 36.6357 63.3332C37.0236 62.8568 37.6608 62.6607 39.8773 62.3524C42.8695 61.9321 51.209 60.9793 62.3191 59.8303C66.1148 59.4099 69.6334 58.9055 70.1044 58.7094C70.6031 58.5132 71.3235 57.8406 71.7114 57.2521C72.4871 56.1032 72.3763 56.3274 80.3279 38.112C85.6198 26.0619 87.4206 22.1106 88.0025 21.3539C88.3903 20.9056 88.9167 20.9336 89.4155 21.438Z" fill="white"/>
</svg>
